<svg width="26" height="26" viewBox="0 0 26 26" fill="none" xmlns="http://www.w3.org/2000/svg">
<path d="M13 0C10.4288 0 7.91542 0.762437 5.77759 2.1909C3.63975 3.61935 1.9735 5.64968 0.989564 8.02512C0.00562507 10.4006 -0.251818 13.0144 0.24979 15.5362C0.751397 18.0579 1.98953 20.3743 3.80761 22.1924C5.62569 24.0105 7.94207 25.2486 10.4638 25.7502C12.9856 26.2518 15.5994 25.9944 17.9749 25.0104C20.3503 24.0265 22.3806 22.3603 23.8091 20.2224C25.2376 18.0846 26 15.5712 26 13C25.9964 9.5533 24.6255 6.24882 22.1884 3.81163C19.7512 1.37445 16.4467 0.00363977 13 0ZM14 23.9538V16H17C17.2652 16 17.5196 15.8946 17.7071 15.7071C17.8946 15.5196 18 15.2652 18 15C18 14.7348 17.8946 14.4804 17.7071 14.2929C17.5196 14.1054 17.2652 14 17 14H14V11C14 10.4696 14.2107 9.96086 14.5858 9.58579C14.9609 9.21071 15.4696 9 16 9H18C18.2652 9 18.5196 8.89464 18.7071 8.70711C18.8946 8.51957 19 8.26522 19 8C19 7.73478 18.8946 7.48043 18.7071 7.29289C18.5196 7.10536 18.2652 7 18 7H16C14.9391 7 13.9217 7.42143 13.1716 8.17157C12.4214 8.92172 12 9.93913 12 11V14H9C8.73478 14 8.48043 14.1054 8.29289 14.2929C8.10536 14.4804 8 14.7348 8 15C8 15.2652 8.10536 15.5196 8.29289 15.7071C8.48043 15.8946 8.73478 16 9 16H12V23.9538C9.18099 23.6964 6.5697 22.3622 4.7093 20.2287C2.84889 18.0952 1.88259 15.3266 2.01139 12.4988C2.14019 9.67098 3.35418 7.00169 5.40084 5.04613C7.4475 3.09057 10.1693 1.9993 13 1.9993C15.8307 1.9993 18.5525 3.09057 20.5992 5.04613C22.6458 7.00169 23.8598 9.67098 23.9886 12.4988C24.1174 15.3266 23.1511 18.0952 21.2907 20.2287C19.4303 22.3622 16.819 23.6964 14 23.9538Z" fill="white"/>
</svg>
